<svg width="50" height="50" viewBox="0 0 50 50" fill="none" xmlns="http://www.w3.org/2000/svg">
<path d="M8.3335 25.0002C8.3335 17.8035 8.3335 14.2052 10.2738 11.7514C10.7072 11.2031 11.2031 10.7072 11.7514 10.2738C14.2052 8.3335 17.8035 8.3335 25.0002 8.3335V8.3335C32.1968 8.3335 35.7951 8.3335 38.2489 10.2738C38.7972 10.7072 39.2931 11.2031 39.7266 11.7514C41.6668 14.2052 41.6668 17.8035 41.6668 25.0002V37.6668C41.6668 39.5524 41.6668 40.4953 41.081 41.081C40.4953 41.6668 39.5524 41.6668 37.6668 41.6668H25.0002C17.8035 41.6668 14.2052 41.6668 11.7514 39.7266C11.2031 39.2931 10.7072 38.7972 10.2738 38.2489C8.3335 35.7951 8.3335 32.1968 8.3335 25.0002V25.0002Z" stroke="white" stroke-width="2"/>
<path d="M18.75 22.9165L31.25 22.9165" stroke="white" stroke-width="2" stroke-linecap="round" stroke-linejoin="round"/>
<path d="M25 31.25H31.25" stroke="white" stroke-width="2" stroke-linecap="round" stroke-linejoin="round"/>
</svg>
