<svg width="50" height="50" viewBox="0 0 50 50" fill="none" xmlns="http://www.w3.org/2000/svg">
<path d="M37.5 6.25002L37.75 6.25002C40.5784 6.25002 41.9926 6.25002 42.8713 7.1287C43.75 8.00738 43.75 9.42159 43.75 12.25L43.75 17.75C43.75 18.2214 43.75 18.4571 43.6036 18.6036C43.4571 18.75 43.2214 18.75 42.75 18.75L31.25 18.75M37.5 6.25002L37.25 6.25002C34.4216 6.25002 33.0074 6.25002 32.1287 7.1287C31.25 8.00738 31.25 9.42159 31.25 12.25L31.25 18.75M37.5 6.25002L10.25 6.25002C8.36438 6.25002 7.42157 6.25002 6.83579 6.8358C6.25 7.42159 6.25 8.3644 6.25 10.25L6.25 43.75L12.5 41.6667L18.75 43.75L25 41.6667L31.25 43.75L31.25 18.75" stroke="white" stroke-width="2"/>
<path d="M14.5835 14.5835L22.9168 14.5835" stroke="white" stroke-width="2" stroke-linecap="round"/>
<path d="M16.6665 22.9165H14.5832" stroke="white" stroke-width="2" stroke-linecap="round"/>
<path d="M14.5835 31.25L20.8335 31.25" stroke="white" stroke-width="2" stroke-linecap="round"/>
</svg>
