<svg width="132" height="43" viewBox="0 0 132 43" fill="none" xmlns="http://www.w3.org/2000/svg">
<path d="M9.625 31.7715V11.2299C9.625 10.517 10.0358 9.88863 10.64 9.59863L22.5421 21.5007L10.64 33.4028C10.0358 33.1007 9.625 32.4845 9.625 31.7715ZM26.3121 25.2707L13.3104 32.7865L23.5692 22.5278L26.3121 25.2707ZM30.36 20.0628C30.7708 20.389 31.0729 20.8965 31.0729 21.5007C31.0729 22.1049 30.8071 22.5882 30.3842 22.9265L27.6171 24.5215L24.5962 21.5007L27.6171 18.4799L30.36 20.0628ZM13.3104 10.2149L26.3121 17.7307L23.5692 20.4736L13.3104 10.2149Z" fill="white"/>
<rect x="0.5" y="0.5" width="131" height="42" rx="4.5" stroke="white"/>
<path d="M41.016 9.176C41.728 9.176 42.296 9.344 42.72 9.696C43.12 10.024 43.368 10.496 43.472 11.12H42.816C42.728 10.688 42.536 10.36 42.24 10.128C41.928 9.88 41.52 9.76 41.016 9.76C40.392 9.76 39.904 9.976 39.536 10.416C39.168 10.848 38.992 11.432 38.992 12.168C38.992 12.888 39.168 13.456 39.52 13.872C39.896 14.312 40.456 14.536 41.2 14.536C41.512 14.536 41.808 14.488 42.096 14.408C42.376 14.328 42.616 14.216 42.816 14.088V12.632H41.024V12.064H43.464V14.4C43.192 14.624 42.856 14.792 42.464 14.92C42.048 15.048 41.608 15.112 41.136 15.112C40.232 15.112 39.528 14.824 39.032 14.248C38.568 13.712 38.336 13.016 38.336 12.168C38.336 11.32 38.56 10.624 39.024 10.072C39.512 9.472 40.176 9.176 41.016 9.176ZM44.5604 9.288H48.6084V9.856H45.2164V11.768H48.4164V12.336H45.2164V14.432H48.7444V15H44.5604V9.288ZM49.2141 9.288H53.8941V9.856H51.8781V15H51.2301V9.856H49.2141V9.288ZM57.3193 9.288H57.9673V15H57.3193V9.288ZM58.7298 9.288H63.4098V9.856H61.3938V15H60.7458V9.856H58.7298V9.288ZM69.2829 9.176C70.1309 9.176 70.8109 9.456 71.3069 10.032C71.7709 10.576 72.0109 11.28 72.0109 12.152C72.0109 13.016 71.7709 13.712 71.3069 14.256C70.8109 14.824 70.1309 15.112 69.2749 15.112C68.4189 15.112 67.7469 14.824 67.2509 14.256C66.7789 13.712 66.5469 13.008 66.5469 12.152C66.5469 11.288 66.7789 10.584 67.2509 10.04C67.7469 9.464 68.4189 9.176 69.2829 9.176ZM69.2829 9.76C68.6269 9.76 68.1069 9.984 67.7309 10.44C67.3789 10.872 67.2029 11.44 67.2029 12.152C67.2029 12.856 67.3789 13.424 67.7309 13.856C68.0989 14.304 68.6189 14.528 69.2749 14.528C69.9309 14.528 70.4509 14.304 70.8189 13.872C71.1709 13.44 71.3549 12.872 71.3549 12.152C71.3549 11.424 71.1709 10.848 70.8189 10.416C70.4509 9.976 69.9389 9.76 69.2829 9.76ZM72.9198 9.288H73.6078L76.8398 13.936H76.8637V9.288H77.5198V15H76.8478L73.5998 10.304H73.5758V15H72.9198V9.288Z" fill="white"/>
<path d="M43.7 21.08C45.08 21.08 46.16 21.38 46.955 21.995C47.72 22.595 48.2 23.48 48.395 24.68H46.625C46.475 23.99 46.145 23.48 45.665 23.135C45.17 22.79 44.51 22.625 43.7 22.625C42.695 22.625 41.9 22.955 41.315 23.645C40.67 24.365 40.355 25.37 40.355 26.69C40.355 27.95 40.64 28.925 41.21 29.6C41.825 30.32 42.785 30.68 44.09 30.68C44.6 30.68 45.08 30.62 45.53 30.5C45.95 30.38 46.325 30.215 46.685 30.005V27.8H43.85V26.3H48.44V30.83C47.87 31.28 47.225 31.61 46.49 31.85C45.71 32.09 44.855 32.21 43.895 32.21C42.185 32.21 40.865 31.67 39.92 30.59C39.035 29.585 38.6 28.28 38.6 26.69C38.6 25.085 39.035 23.765 39.92 22.73C40.85 21.62 42.11 21.08 43.7 21.08ZM53.8379 24.035C55.0079 24.035 55.9529 24.41 56.6729 25.19C57.3779 25.955 57.7379 26.93 57.7379 28.13C57.7379 29.315 57.3779 30.29 56.6879 31.04C55.9679 31.82 55.0079 32.21 53.8379 32.21C52.6529 32.21 51.7079 31.82 50.9879 31.04C50.2829 30.29 49.9379 29.315 49.9379 28.13C49.9379 26.93 50.2829 25.955 51.0029 25.19C51.7079 24.41 52.6529 24.035 53.8379 24.035ZM53.8379 25.43C53.1179 25.43 52.5779 25.7 52.1879 26.27C51.8579 26.75 51.6929 27.38 51.6929 28.13C51.6929 28.88 51.8579 29.495 52.1879 29.975C52.5779 30.53 53.1179 30.815 53.8379 30.815C54.5429 30.815 55.0979 30.53 55.4879 29.975C55.8179 29.48 55.9979 28.865 55.9979 28.13C55.9979 27.38 55.8179 26.75 55.4879 26.27C55.0979 25.7 54.5429 25.43 53.8379 25.43ZM62.832 24.035C64.002 24.035 64.947 24.41 65.667 25.19C66.372 25.955 66.732 26.93 66.732 28.13C66.732 29.315 66.372 30.29 65.682 31.04C64.962 31.82 64.002 32.21 62.832 32.21C61.647 32.21 60.702 31.82 59.982 31.04C59.277 30.29 58.932 29.315 58.932 28.13C58.932 26.93 59.277 25.955 59.997 25.19C60.702 24.41 61.647 24.035 62.832 24.035ZM62.832 25.43C62.112 25.43 61.572 25.7 61.182 26.27C60.852 26.75 60.687 27.38 60.687 28.13C60.687 28.88 60.852 29.495 61.182 29.975C61.572 30.53 62.112 30.815 62.832 30.815C63.537 30.815 64.092 30.53 64.482 29.975C64.812 29.48 64.992 28.865 64.992 28.13C64.992 27.38 64.812 26.75 64.482 26.27C64.092 25.7 63.537 25.43 62.832 25.43ZM71.4512 24.035C72.4112 24.035 73.1762 24.41 73.7462 25.19V24.245H75.4562V31.505C75.4562 33.95 74.2412 35.18 71.8112 35.18C70.7162 35.18 69.8912 34.97 69.3212 34.58C68.7512 34.16 68.3912 33.53 68.2412 32.66H69.9512C70.0412 33.095 70.2212 33.395 70.5062 33.575C70.7762 33.74 71.2112 33.83 71.8112 33.83C73.1012 33.83 73.7462 33.14 73.7462 31.76V30.62C73.1762 31.415 72.4112 31.82 71.4512 31.82C70.4012 31.82 69.5462 31.46 68.9012 30.77C68.2412 30.065 67.9262 29.12 67.9262 27.95C67.9262 26.78 68.2412 25.835 68.9012 25.115C69.5462 24.395 70.4012 24.035 71.4512 24.035ZM71.7212 25.415C71.0762 25.415 70.5812 25.64 70.2212 26.09C69.8612 26.525 69.6812 27.14 69.6812 27.95C69.6812 28.685 69.8162 29.255 70.1012 29.675C70.4312 30.17 70.9562 30.425 71.7062 30.425C72.3662 30.425 72.8762 30.2 73.2362 29.78C73.5812 29.33 73.7612 28.73 73.7612 27.95C73.7612 27.155 73.5812 26.54 73.2362 26.09C72.8762 25.64 72.3662 25.415 71.7212 25.415ZM77.3996 21.08H79.1096V32H77.3996V21.08ZM84.3582 24.035C85.6332 24.035 86.6082 24.455 87.2832 25.325C87.8982 26.105 88.2132 27.2 88.2132 28.595H82.4082C82.4682 29.315 82.6632 29.87 82.9932 30.245C83.3232 30.62 83.8032 30.815 84.4182 30.815C84.9432 30.815 85.3632 30.695 85.6932 30.455C85.9482 30.26 86.1732 29.945 86.3832 29.51H88.0932C87.9132 30.23 87.5532 30.845 87.0132 31.325C86.3232 31.91 85.4682 32.21 84.4332 32.21C83.2782 32.21 82.3632 31.85 81.6882 31.145C80.9682 30.41 80.6082 29.405 80.6082 28.115C80.6082 26.96 80.9382 26 81.6282 25.22C82.2882 24.425 83.2032 24.035 84.3582 24.035ZM84.4032 25.43C83.8332 25.43 83.3982 25.58 83.0682 25.91C82.7532 26.225 82.5432 26.69 82.4382 27.305H86.4282C86.2782 26.045 85.6032 25.43 84.4032 25.43ZM94.7141 21.29H99.1541C101.734 21.29 103.039 22.385 103.039 24.575C103.039 26.78 101.734 27.89 99.1241 27.89H96.4691V32H94.7141V21.29ZM96.4691 22.79V26.39H99.0191C99.7991 26.39 100.369 26.24 100.729 25.97C101.089 25.685 101.269 25.22 101.269 24.575C101.269 23.93 101.074 23.48 100.714 23.21C100.354 22.925 99.7841 22.79 99.0191 22.79H96.4691ZM104.543 21.08H106.253V32H104.543V21.08ZM111.727 24.035C112.867 24.035 113.722 24.32 114.262 24.89C114.742 25.385 114.982 26.105 114.982 27.05V32H113.392V30.98C113.092 31.37 112.717 31.655 112.282 31.865C111.787 32.09 111.202 32.21 110.527 32.21C109.717 32.21 109.087 32 108.622 31.595C108.142 31.175 107.902 30.65 107.902 30.005C107.902 29.135 108.232 28.46 108.922 27.995C109.552 27.545 110.437 27.305 111.577 27.275L113.272 27.23V26.93C113.272 25.91 112.717 25.415 111.607 25.415C111.127 25.415 110.752 25.49 110.467 25.67C110.137 25.865 109.912 26.165 109.822 26.57L108.127 26.435C108.292 25.58 108.712 24.95 109.387 24.56C109.957 24.2 110.737 24.035 111.727 24.035ZM113.272 28.46L111.697 28.505C110.332 28.535 109.657 29.015 109.657 29.945C109.657 30.215 109.762 30.44 110.002 30.62C110.242 30.8 110.542 30.905 110.917 30.905C111.577 30.905 112.132 30.71 112.582 30.335C113.032 29.945 113.272 29.45 113.272 28.85V28.46ZM115.961 24.245H117.821L119.876 29.765L121.841 24.245H123.701L119.501 34.97H117.671L119.036 31.82L115.961 24.245Z" fill="white"/>
</svg>
