<svg width="132" height="43" viewBox="0 0 132 43" fill="none" xmlns="http://www.w3.org/2000/svg">
<g clip-path="url(#clip0_80_907)">
<path d="M23.6758 15.6016C21.9297 15.6016 20.5 16.668 19.5859 16.668C18.6133 16.668 17.3477 15.6719 15.8242 15.6719C12.9297 15.6719 10 18.0625 10 22.5625C10 25.375 11.0781 28.3398 12.4258 30.25C13.5742 31.8672 14.582 33.1914 16.0352 33.1914C17.4648 33.1914 18.0977 32.2422 19.8789 32.2422C21.6836 32.2422 22.0938 33.168 23.6758 33.168C25.2461 33.168 26.2891 31.7266 27.2852 30.3086C28.3867 28.6797 28.8555 27.0977 28.8672 27.0156C28.7734 26.9922 25.7734 25.7617 25.7734 22.3281C25.7734 19.3516 28.1289 18.0156 28.2695 17.9102C26.7109 15.6719 24.332 15.6016 23.6758 15.6016ZM22.8555 13.7031C23.5703 12.8359 24.0742 11.6523 24.0742 10.457C24.0742 10.293 24.0625 10.1289 24.0391 10C22.8672 10.0469 21.4609 10.7734 20.6289 11.7578C19.9609 12.5078 19.3516 13.7031 19.3516 14.8984C19.3516 15.0859 19.3867 15.2617 19.3984 15.3203C19.4688 15.332 19.5859 15.3555 19.7148 15.3555C20.7578 15.3555 22.0703 14.6523 22.8555 13.7031Z" fill="white"/>
</g>
<rect x="0.5" y="0.5" width="131" height="42" rx="4.5" stroke="white"/>
<path d="M38.576 9.288H40.624C41.528 9.288 42.208 9.544 42.672 10.072C43.096 10.552 43.312 11.248 43.312 12.144C43.312 13.024 43.08 13.72 42.624 14.216C42.144 14.736 41.456 15 40.56 15H38.576V9.288ZM39.232 9.856V14.432H40.448C41.192 14.432 41.752 14.232 42.128 13.84C42.48 13.456 42.664 12.888 42.664 12.144C42.664 11.376 42.496 10.808 42.168 10.44C41.816 10.048 41.272 9.856 40.52 9.856H39.232ZM45.9924 10.752C46.6084 10.752 47.1044 10.96 47.4724 11.392C47.8244 11.8 48.0004 12.312 48.0004 12.936C48.0004 13.552 47.8244 14.064 47.4804 14.464C47.1044 14.896 46.6084 15.112 45.9924 15.112C45.3684 15.112 44.8804 14.896 44.5124 14.464C44.1604 14.064 43.9844 13.552 43.9844 12.936C43.9844 12.312 44.1604 11.8 44.5124 11.392C44.8804 10.96 45.3684 10.752 45.9924 10.752ZM45.9924 11.288C45.5524 11.288 45.2084 11.456 44.9684 11.792C44.7444 12.096 44.6404 12.472 44.6404 12.936C44.6404 13.392 44.7444 13.768 44.9684 14.072C45.2084 14.408 45.5524 14.576 45.9924 14.576C46.4244 14.576 46.7684 14.408 47.0244 14.072C47.2404 13.768 47.3524 13.384 47.3524 12.936C47.3524 12.472 47.2404 12.096 47.0244 11.792C46.7684 11.456 46.4244 11.288 45.9924 11.288ZM48.3759 10.864H49.0799L50.0959 14.216L51.0559 10.864H51.6559L52.6159 14.216L53.6319 10.864H54.3359L52.9279 15H52.3199L51.3599 11.672L50.3839 15H49.7839L48.3759 10.864ZM56.807 10.752C57.831 10.752 58.351 11.32 58.351 12.456V15H57.711V12.504C57.711 11.696 57.343 11.296 56.623 11.296C56.335 11.296 56.087 11.4 55.879 11.608C55.655 11.832 55.535 12.128 55.511 12.504V15H54.871V10.864H55.511V11.472C55.655 11.24 55.839 11.064 56.063 10.944C56.287 10.816 56.535 10.752 56.807 10.752ZM59.4678 9.176H60.0998V15H59.4678V9.176ZM63.0706 10.752C63.6866 10.752 64.1826 10.96 64.5506 11.392C64.9026 11.8 65.0786 12.312 65.0786 12.936C65.0786 13.552 64.9026 14.064 64.5586 14.464C64.1826 14.896 63.6866 15.112 63.0706 15.112C62.4466 15.112 61.9586 14.896 61.5906 14.464C61.2386 14.064 61.0626 13.552 61.0626 12.936C61.0626 12.312 61.2386 11.8 61.5906 11.392C61.9586 10.96 62.4466 10.752 63.0706 10.752ZM63.0706 11.288C62.6306 11.288 62.2866 11.456 62.0466 11.792C61.8226 12.096 61.7186 12.472 61.7186 12.936C61.7186 13.392 61.8226 13.768 62.0466 14.072C62.2866 14.408 62.6306 14.576 63.0706 14.576C63.5026 14.576 63.8466 14.408 64.1026 14.072C64.3186 13.768 64.4306 13.384 64.4306 12.936C64.4306 12.472 64.3186 12.096 64.1026 11.792C63.8466 11.456 63.5026 11.288 63.0706 11.288ZM67.7101 10.752C68.3021 10.752 68.7341 10.904 69.0221 11.216C69.2621 11.488 69.3901 11.864 69.3901 12.344V15H68.7901V14.304C68.6301 14.528 68.4141 14.712 68.1581 14.856C67.8541 15.024 67.5101 15.112 67.1261 15.112C66.7101 15.112 66.3821 15.008 66.1341 14.8C65.8781 14.584 65.7501 14.304 65.7501 13.968C65.7501 13.496 65.9341 13.144 66.3181 12.904C66.6541 12.68 67.1341 12.56 67.7581 12.552L68.7501 12.536V12.32C68.7501 11.624 68.3901 11.28 67.6701 11.28C67.3661 11.28 67.1181 11.336 66.9261 11.464C66.7101 11.592 66.5741 11.792 66.5101 12.056L65.8781 12.008C65.9661 11.576 66.1821 11.248 66.5181 11.04C66.8221 10.848 67.2141 10.752 67.7101 10.752ZM68.7501 13.016L67.7981 13.032C66.8701 13.048 66.4061 13.352 66.4061 13.952C66.4061 14.144 66.4781 14.296 66.6381 14.424C66.7981 14.544 67.0061 14.608 67.2621 14.608C67.6541 14.608 67.9981 14.48 68.3021 14.224C68.5981 13.976 68.7501 13.688 68.7501 13.368V13.016ZM73.4348 9.176H74.0748V15H73.4748V14.32C73.1868 14.848 72.7228 15.112 72.0988 15.112C71.4908 15.112 71.0188 14.888 70.6828 14.456C70.3708 14.056 70.2188 13.544 70.2188 12.92C70.2188 12.312 70.3708 11.816 70.6828 11.416C71.0188 10.968 71.4748 10.752 72.0668 10.752C72.6588 10.752 73.1148 11.04 73.4348 11.624V9.176ZM72.2028 11.28C71.7468 11.28 71.4028 11.44 71.1788 11.76C70.9708 12.04 70.8748 12.424 70.8748 12.92C70.8748 13.416 70.9708 13.808 71.1708 14.096C71.3948 14.416 71.7308 14.584 72.1788 14.584C72.5948 14.584 72.9148 14.424 73.1468 14.104C73.3468 13.816 73.4508 13.44 73.4508 12.976V12.896C73.4508 12.416 73.3308 12.024 73.1068 11.728C72.8748 11.424 72.5708 11.28 72.2028 11.28ZM79.5784 10.752C80.1944 10.752 80.6904 10.96 81.0584 11.392C81.4104 11.8 81.5864 12.312 81.5864 12.936C81.5864 13.552 81.4104 14.064 81.0664 14.464C80.6904 14.896 80.1944 15.112 79.5784 15.112C78.9544 15.112 78.4664 14.896 78.0984 14.464C77.7464 14.064 77.5704 13.552 77.5704 12.936C77.5704 12.312 77.7464 11.8 78.0984 11.392C78.4664 10.96 78.9544 10.752 79.5784 10.752ZM79.5784 11.288C79.1384 11.288 78.7944 11.456 78.5544 11.792C78.3304 12.096 78.2264 12.472 78.2264 12.936C78.2264 13.392 78.3304 13.768 78.5544 14.072C78.7944 14.408 79.1384 14.576 79.5784 14.576C80.0104 14.576 80.3544 14.408 80.6104 14.072C80.8264 13.768 80.9384 13.384 80.9384 12.936C80.9384 12.472 80.8264 12.096 80.6104 11.792C80.3544 11.456 80.0104 11.288 79.5784 11.288ZM84.3539 10.752C85.3779 10.752 85.8979 11.32 85.8979 12.456V15H85.2579V12.504C85.2579 11.696 84.8899 11.296 84.1699 11.296C83.8819 11.296 83.6339 11.4 83.4259 11.608C83.2019 11.832 83.0819 12.128 83.0579 12.504V15H82.4179V10.864H83.0579V11.472C83.2019 11.24 83.3859 11.064 83.6099 10.944C83.8339 10.816 84.0819 10.752 84.3539 10.752ZM90.6547 9.528V10.864H91.6787V11.4H90.6547V14.032C90.6547 14.184 90.6787 14.296 90.7427 14.36C90.7987 14.424 90.9027 14.464 91.0467 14.464H91.5747V15H90.9507C90.6147 15 90.3667 14.912 90.2227 14.736C90.0867 14.576 90.0227 14.344 90.0227 14.032V11.4H89.1907V10.864H90.0227V9.792L90.6547 9.528ZM92.3944 9.176H93.0344V11.544C93.1784 11.28 93.3704 11.08 93.6104 10.944C93.8344 10.816 94.0824 10.752 94.3624 10.752C94.8424 10.752 95.2184 10.888 95.4744 11.176C95.7304 11.456 95.8584 11.864 95.8584 12.392V15H95.2184V12.488C95.2184 12.104 95.1224 11.808 94.9464 11.6C94.7544 11.392 94.4904 11.288 94.1464 11.288C93.8264 11.288 93.5624 11.416 93.3544 11.672C93.1384 11.928 93.0344 12.256 93.0344 12.64V15H92.3944V9.176ZM98.5438 10.752C99.2078 10.752 99.7118 10.976 100.048 11.424C100.352 11.824 100.512 12.392 100.528 13.112H97.2638C97.2958 13.576 97.4158 13.936 97.6398 14.192C97.8638 14.448 98.1758 14.576 98.5678 14.576C98.9038 14.576 99.1838 14.488 99.3918 14.32C99.5678 14.176 99.7038 13.96 99.8078 13.672H100.448C100.352 14.072 100.168 14.392 99.8878 14.648C99.5438 14.952 99.1038 15.112 98.5678 15.112C97.9758 15.112 97.4958 14.912 97.1438 14.528C96.7758 14.128 96.5998 13.6 96.5998 12.928C96.5998 12.32 96.7678 11.808 97.1198 11.4C97.4718 10.968 97.9438 10.752 98.5438 10.752ZM98.5598 11.288C98.1918 11.288 97.8958 11.408 97.6718 11.648C97.4478 11.888 97.3198 12.208 97.2798 12.616H99.8638C99.7838 11.728 99.3438 11.288 98.5598 11.288Z" fill="white"/>
<path d="M42.095 21.29H44.09L48.185 32H46.31L45.335 29.315H40.85L39.875 32H38L42.095 21.29ZM41.375 27.875H44.81L43.13 23.18H43.07L41.375 27.875ZM53.0107 24.035C54.1507 24.035 55.0507 24.44 55.7107 25.25C56.3107 26 56.6107 26.96 56.6107 28.16C56.6107 29.3 56.3107 30.245 55.7257 30.995C55.0957 31.805 54.2107 32.21 53.1007 32.21C52.2007 32.21 51.4207 31.775 50.7907 30.935V34.97H49.0807V24.245H50.6707V25.07C51.2107 24.38 51.9907 24.035 53.0107 24.035ZM52.7557 25.415C52.0807 25.415 51.5707 25.67 51.2107 26.21C50.8807 26.675 50.7307 27.29 50.7307 28.07V28.19C50.7307 29 50.9257 29.66 51.3307 30.155C51.6907 30.605 52.1407 30.83 52.6957 30.83C53.4457 30.83 54.0157 30.575 54.3757 30.095C54.6907 29.645 54.8557 29 54.8557 28.16C54.8557 27.32 54.7057 26.675 54.4207 26.225C54.0607 25.685 53.5057 25.415 52.7557 25.415ZM62.0341 24.035C63.1741 24.035 64.0741 24.44 64.7341 25.25C65.3341 26 65.6341 26.96 65.6341 28.16C65.6341 29.3 65.3341 30.245 64.7491 30.995C64.1191 31.805 63.2341 32.21 62.1241 32.21C61.2241 32.21 60.4441 31.775 59.8141 30.935V34.97H58.1041V24.245H59.6941V25.07C60.2341 24.38 61.0141 24.035 62.0341 24.035ZM61.7791 25.415C61.1041 25.415 60.5941 25.67 60.2341 26.21C59.9041 26.675 59.7541 27.29 59.7541 28.07V28.19C59.7541 29 59.9491 29.66 60.3541 30.155C60.7141 30.605 61.1641 30.83 61.7191 30.83C62.4691 30.83 63.0391 30.575 63.3991 30.095C63.7141 29.645 63.8791 29 63.8791 28.16C63.8791 27.32 63.7291 26.675 63.4441 26.225C63.0841 25.685 62.5291 25.415 61.7791 25.415ZM70.0525 24.035C72.0925 24.035 73.2175 24.845 73.3975 26.495H71.7325C71.6125 26.105 71.4325 25.82 71.1925 25.67C70.9375 25.505 70.5475 25.43 70.0225 25.43C69.5725 25.43 69.2275 25.49 69.0025 25.625C68.7325 25.76 68.6125 25.97 68.6125 26.27C68.6125 26.51 68.8075 26.735 69.2275 26.915C69.4825 27.02 69.9925 27.17 70.7725 27.365C71.6425 27.575 72.3025 27.815 72.7225 28.1C73.3375 28.49 73.6525 29.045 73.6525 29.735C73.6525 31.385 72.4825 32.21 70.1575 32.21C67.9975 32.21 66.8425 31.295 66.6775 29.48H68.3425C68.4325 29.975 68.6125 30.32 68.8675 30.53C69.1225 30.71 69.5275 30.815 70.0975 30.815C71.2975 30.815 71.8975 30.485 71.8975 29.855C71.8975 29.495 71.6725 29.21 71.2225 29C70.9825 28.88 70.4725 28.745 69.6925 28.565C68.7775 28.355 68.1325 28.13 67.7575 27.89C67.1575 27.515 66.8575 26.99 66.8575 26.315C66.8575 25.595 67.1425 25.04 67.7425 24.65C68.3275 24.23 69.0925 24.035 70.0525 24.035ZM77.4384 21.74V24.245H79.1634V25.655H77.4384V30.035C77.4384 30.215 77.4684 30.35 77.5584 30.455C77.6484 30.545 77.7684 30.59 77.9484 30.59H78.9684V32H77.6634C76.9884 32 76.4934 31.82 76.1784 31.46C75.8784 31.13 75.7284 30.665 75.7284 30.035V25.655H74.3334V24.245H75.7284V22.445L77.4384 21.74ZM84.043 24.035C85.213 24.035 86.158 24.41 86.878 25.19C87.583 25.955 87.943 26.93 87.943 28.13C87.943 29.315 87.583 30.29 86.893 31.04C86.173 31.82 85.213 32.21 84.043 32.21C82.858 32.21 81.913 31.82 81.193 31.04C80.488 30.29 80.143 29.315 80.143 28.13C80.143 26.93 80.488 25.955 81.208 25.19C81.913 24.41 82.858 24.035 84.043 24.035ZM84.043 25.43C83.323 25.43 82.783 25.7 82.393 26.27C82.063 26.75 81.898 27.38 81.898 28.13C81.898 28.88 82.063 29.495 82.393 29.975C82.783 30.53 83.323 30.815 84.043 30.815C84.748 30.815 85.303 30.53 85.693 29.975C86.023 29.48 86.203 28.865 86.203 28.13C86.203 27.38 86.023 26.75 85.693 26.27C85.303 25.7 84.748 25.43 84.043 25.43ZM93.0971 24.035C93.4721 24.035 93.8021 24.095 94.0721 24.23V25.94C93.6821 25.82 93.3221 25.775 92.9621 25.775C92.5121 25.775 92.1071 25.94 91.7471 26.3C91.3271 26.705 91.1321 27.23 91.1321 27.89V32H89.4371V24.245H91.1321V25.355C91.3421 24.965 91.5821 24.665 91.8671 24.455C92.2121 24.17 92.6171 24.035 93.0971 24.035ZM98.3475 24.035C99.6225 24.035 100.597 24.455 101.272 25.325C101.887 26.105 102.202 27.2 102.202 28.595H96.3975C96.4575 29.315 96.6525 29.87 96.9825 30.245C97.3125 30.62 97.7925 30.815 98.4075 30.815C98.9325 30.815 99.3525 30.695 99.6825 30.455C99.9375 30.26 100.162 29.945 100.372 29.51H102.082C101.902 30.23 101.542 30.845 101.002 31.325C100.312 31.91 99.4575 32.21 98.4225 32.21C97.2675 32.21 96.3525 31.85 95.6775 31.145C94.9575 30.41 94.5975 29.405 94.5975 28.115C94.5975 26.96 94.9275 26 95.6175 25.22C96.2775 24.425 97.1925 24.035 98.3475 24.035ZM98.3925 25.43C97.8225 25.43 97.3875 25.58 97.0575 25.91C96.7425 26.225 96.5325 26.69 96.4275 27.305H100.417C100.267 26.045 99.5925 25.43 98.3925 25.43Z" fill="white"/>
<defs>
<clipPath id="clip0_80_907">
<rect width="18.8672" height="24.4805" fill="white" transform="translate(10 10)"/>
</clipPath>
</defs>
</svg>
